<svg width="146" height="17" viewBox="0 0 146 17" fill="none" xmlns="http://www.w3.org/2000/svg">
<path d="M5.96538 15.9993L0 1.08587H3.77097L6.64714 8.69173C6.81758 9.13203 6.95961 9.51552 7.07324 9.84219C7.20107 10.1689 7.30759 10.4742 7.39281 10.7583C7.49223 11.0424 7.57745 11.3335 7.64847 11.6318C7.73369 11.9159 7.82601 12.2425 7.92543 12.6118H7.26498C7.37861 12.1289 7.49223 11.7028 7.60586 11.3335C7.71949 10.95 7.84731 10.5595 7.98935 10.1618C8.13138 9.74987 8.30892 9.25986 8.52197 8.69173L11.2916 1.08587H14.9987L8.99068 15.9993H5.96538Z" fill="#1059C6"/>
<path d="M13.4587 15.9993L19.3602 1.08587H22.4281L28.287 15.9993H24.6225L21.8103 8.43607C21.6966 8.1378 21.583 7.81822 21.4694 7.47735C21.3557 7.13647 21.2421 6.78849 21.1285 6.4334C21.0149 6.06412 20.9012 5.70904 20.7876 5.36816C20.6882 5.01308 20.603 4.6864 20.532 4.38813L21.1711 4.36683C21.0859 4.72191 20.9865 5.06989 20.8728 5.41077C20.7734 5.75165 20.6669 6.09253 20.5533 6.4334C20.4538 6.76008 20.3402 7.09386 20.2124 7.43474C20.0846 7.76141 19.9638 8.10229 19.8502 8.45737L17.0379 15.9993H13.4587ZM16.271 13.1445L17.4001 10.4174H24.2603L25.3682 13.1445H16.271Z" fill="#1059C6"/>
<path d="M36.5065 16.2124C35.3844 16.2124 34.3476 16.0277 33.396 15.6584C32.4586 15.275 31.6419 14.7423 30.9459 14.0606C30.2499 13.3646 29.7102 12.5479 29.3267 11.6105C28.9574 10.6589 28.7728 9.61494 28.7728 8.47868C28.7728 7.37082 28.9716 6.34818 29.3693 5.41077C29.767 4.47335 30.3139 3.66376 31.0098 2.98201C31.72 2.28604 32.5509 1.74632 33.5025 1.36283C34.4683 0.979342 35.5194 0.787598 36.6556 0.787598C37.3658 0.787598 38.0618 0.879919 38.7435 1.06456C39.4253 1.2492 40.0573 1.52617 40.6396 1.89545C41.2362 2.25054 41.7475 2.67663 42.1736 3.17375L39.9579 5.70904C39.6596 5.39656 39.34 5.1267 38.9992 4.89945C38.6725 4.65799 38.3103 4.47335 37.9126 4.34552C37.5149 4.21769 37.0888 4.15378 36.6343 4.15378C36.0662 4.15378 35.5265 4.2603 35.0151 4.47335C34.518 4.6722 34.0777 4.96336 33.6942 5.34685C33.325 5.71614 33.0338 6.17064 32.8207 6.71037C32.6077 7.25009 32.5012 7.85373 32.5012 8.52129C32.5012 9.17464 32.6077 9.77118 32.8207 10.3109C33.0338 10.8364 33.3321 11.2909 33.7155 11.6744C34.099 12.0579 34.5606 12.3491 35.1004 12.5479C35.6543 12.7468 36.265 12.8462 36.9326 12.8462C37.3871 12.8462 37.8203 12.7823 38.2322 12.6544C38.6441 12.5266 39.0205 12.3562 39.3614 12.1431C39.7164 11.9159 40.0289 11.6602 40.2988 11.3761L42.0458 14.1458C41.6907 14.5435 41.2149 14.8986 40.6183 15.211C40.036 15.5235 39.3827 15.7721 38.6583 15.9567C37.9481 16.1271 37.2309 16.2124 36.5065 16.2124Z" fill="#1059C6"/>
<path d="M106.359 15.9993V1.08587H112.942C113.964 1.08587 114.831 1.235 115.541 1.53327C116.251 1.81734 116.784 2.23633 117.139 2.79026C117.508 3.32999 117.693 3.98334 117.693 4.75032C117.693 5.60251 117.48 6.31978 117.054 6.90211C116.642 7.48445 116.038 7.87504 115.243 8.07388L115.2 7.66909C115.868 7.81112 116.443 8.05968 116.926 8.41476C117.423 8.76984 117.806 9.21015 118.076 9.73567C118.346 10.247 118.481 10.8293 118.481 11.4827C118.481 12.2354 118.353 12.8959 118.098 13.464C117.842 14.018 117.473 14.4867 116.99 14.8702C116.507 15.2536 115.939 15.5377 115.285 15.7224C114.646 15.907 113.936 15.9993 113.155 15.9993H106.359ZM109.767 12.974H113.027C113.425 12.974 113.758 12.9101 114.028 12.7823C114.312 12.6544 114.533 12.4698 114.689 12.2283C114.845 11.9727 114.923 11.6673 114.923 11.3122C114.923 10.9856 114.838 10.7086 114.667 10.4813C114.511 10.2541 114.284 10.0836 113.986 9.97002C113.687 9.84219 113.332 9.77828 112.92 9.77828H109.767V12.974ZM109.767 7.07255H112.43C112.8 7.07255 113.112 7.01574 113.368 6.90211C113.638 6.77428 113.837 6.60384 113.964 6.39079C114.106 6.16354 114.177 5.89368 114.177 5.58121C114.177 5.1267 114.021 4.77162 113.709 4.51596C113.396 4.2461 112.928 4.11117 112.303 4.11117H109.767V7.07255Z" fill="#1059C6"/>
<path d="M126.24 16.2124C125.061 16.2124 124.01 15.9567 123.087 15.4454C122.178 14.9341 121.454 14.2381 120.914 13.3575C120.388 12.4769 120.126 11.4685 120.126 10.3322C120.126 9.19594 120.388 8.18751 120.914 7.30691C121.454 6.4263 122.178 5.73034 123.087 5.21902C124.01 4.7077 125.061 4.45204 126.24 4.45204C127.419 4.45204 128.463 4.7077 129.372 5.21902C130.295 5.73034 131.02 6.4263 131.545 7.30691C132.071 8.18751 132.333 9.19594 132.333 10.3322C132.333 11.4685 132.071 12.4769 131.545 13.3575C131.02 14.2381 130.295 14.9341 129.372 15.4454C128.463 15.9567 127.419 16.2124 126.24 16.2124ZM126.24 13.2723C126.751 13.2723 127.206 13.1445 127.604 12.8888C128.001 12.6331 128.314 12.2852 128.541 11.8449C128.768 11.4046 128.875 10.9003 128.861 10.3322C128.875 9.76407 128.768 9.25986 128.541 8.81956C128.314 8.36505 128.001 8.00997 127.604 7.75431C127.206 7.49865 126.751 7.37082 126.24 7.37082C125.729 7.37082 125.267 7.49865 124.855 7.75431C124.458 8.00997 124.145 8.36505 123.918 8.81956C123.691 9.25986 123.584 9.76407 123.598 10.3322C123.584 10.9003 123.691 11.4046 123.918 11.8449C124.145 12.2852 124.458 12.6331 124.855 12.8888C125.267 13.1445 125.729 13.2723 126.24 13.2723Z" fill="#1059C6"/>
<path d="M141.113 15.9993L138.706 12.3562L137.598 10.8009L133.124 4.6864H137.214L139.536 8.1591L140.751 9.82089L145.161 15.9993H141.113ZM133.017 15.9993L137.576 9.65045L139.409 11.8449L137.044 15.9993H133.017ZM140.495 11.0779L138.684 8.90478L140.921 4.6864H144.948L140.495 11.0779Z" fill="#1059C6"/>
<path d="M57.6228 16.4787C56.6428 16.4787 55.7551 16.3651 54.9597 16.1378C54.1785 15.8964 53.4825 15.5555 52.8718 15.1152C52.2611 14.6607 51.7142 14.1281 51.2313 13.5173L53.4257 11.0246C54.1359 11.9763 54.8461 12.6154 55.5562 12.9421C56.2806 13.2688 57.0263 13.4321 57.7932 13.4321C58.1767 13.4321 58.5247 13.3824 58.8372 13.283C59.1497 13.1835 59.3911 13.0415 59.5616 12.8569C59.732 12.658 59.8172 12.4166 59.8172 12.1325C59.8172 11.9194 59.7604 11.7277 59.6468 11.5573C59.5473 11.3868 59.4053 11.2377 59.2207 11.1099C59.036 10.982 58.8159 10.8684 58.5602 10.769C58.3046 10.6553 58.0347 10.563 57.7506 10.492C57.4666 10.4068 57.1754 10.3358 56.8771 10.279C56.0533 10.0943 55.3361 9.86707 54.7253 9.5972C54.1146 9.32734 53.6033 9.00067 53.1914 8.61718C52.7937 8.21949 52.4954 7.77208 52.2966 7.27497C52.0977 6.76365 51.9983 6.19552 51.9983 5.57057C51.9983 4.90302 52.1474 4.29228 52.4457 3.73835C52.7582 3.17022 53.1701 2.68731 53.6814 2.28961C54.2069 1.87772 54.8106 1.56525 55.4923 1.3522C56.1741 1.12494 56.8842 1.01132 57.6228 1.01132C58.6028 1.01132 59.4408 1.11784 60.1368 1.33089C60.8469 1.52974 61.4506 1.8209 61.9477 2.20439C62.459 2.58788 62.8922 3.04949 63.2473 3.58921L61.0103 5.74101C60.712 5.37173 60.3853 5.06636 60.0303 4.8249C59.6894 4.58344 59.3201 4.3988 58.9224 4.27097C58.5389 4.14314 58.1412 4.07923 57.7293 4.07923C57.3032 4.07923 56.9339 4.13604 56.6215 4.24967C56.3232 4.34909 56.0888 4.49822 55.9184 4.69707C55.748 4.88171 55.6627 5.10897 55.6627 5.37883C55.6627 5.62028 55.7338 5.82623 55.8758 5.99667C56.0178 6.16711 56.2096 6.32335 56.451 6.46538C56.6925 6.59321 56.9694 6.70684 57.2819 6.80626C57.5944 6.89148 57.9211 6.96249 58.2619 7.01931C59.0431 7.17554 59.7462 7.38149 60.3711 7.63715C61.0103 7.89281 61.5571 8.20528 62.0116 8.57457C62.4803 8.94385 62.8354 9.38416 63.0769 9.89547C63.3325 10.3926 63.4604 10.9749 63.4604 11.6425C63.4604 12.6793 63.2047 13.5599 62.6934 14.2843C62.1963 14.9945 61.5074 15.5413 60.6268 15.9248C59.7604 16.2941 58.7591 16.4787 57.6228 16.4787Z" fill="#1D2939"/>
<path d="M69.9965 16.4574C69.0448 16.4574 68.1926 16.2088 67.4399 15.7117C66.7013 15.2004 66.1119 14.5044 65.6716 13.6238C65.2313 12.729 65.0111 11.7206 65.0111 10.5985C65.0111 9.44807 65.2313 8.43253 65.6716 7.55193C66.1119 6.67133 66.7155 5.98247 67.4825 5.48535C68.2495 4.97403 69.123 4.71837 70.103 4.71837C70.6427 4.71837 71.1327 4.79649 71.573 4.95273C72.0275 5.10897 72.4252 5.32912 72.7661 5.61318C73.107 5.88304 73.3982 6.20262 73.6396 6.5719C73.8811 6.92699 74.0586 7.31048 74.1722 7.72237L73.4692 7.63715V4.95273H76.8567V16.2656H73.4053V13.5386L74.1722 13.5173C74.0586 13.915 73.874 14.2914 73.6183 14.6465C73.3626 15.0016 73.0502 15.314 72.6809 15.5839C72.3116 15.8538 71.8997 16.0668 71.4452 16.223C70.9907 16.3793 70.5078 16.4574 69.9965 16.4574ZM70.9339 13.5812C71.4594 13.5812 71.9139 13.4605 72.2974 13.219C72.6809 12.9776 72.9792 12.6367 73.1922 12.1964C73.4053 11.7419 73.5118 11.2093 73.5118 10.5985C73.5118 9.98779 73.4053 9.46227 73.1922 9.02197C72.9792 8.56747 72.6809 8.21949 72.2974 7.97803C71.9139 7.72237 71.4594 7.59454 70.9339 7.59454C70.4226 7.59454 69.9752 7.72237 69.5917 7.97803C69.2224 8.21949 68.9312 8.56747 68.7182 9.02197C68.5051 9.46227 68.3986 9.98779 68.3986 10.5985C68.3986 11.2093 68.5051 11.7419 68.7182 12.1964C68.9312 12.6367 69.2224 12.9776 69.5917 13.219C69.9752 13.4605 70.4226 13.5812 70.9339 13.5812Z" fill="#1D2939"/>
<path d="M79.8645 16.2656V4.95273H83.1028L83.2094 7.25366L82.5276 7.50932C82.6838 6.998 82.9608 6.5364 83.3585 6.1245C83.7704 5.6984 84.2604 5.35752 84.8285 5.10186C85.3967 4.8462 85.9932 4.71837 86.6181 4.71837C87.4703 4.71837 88.1876 4.89592 88.7699 5.251C89.3523 5.59188 89.7926 6.1103 90.0908 6.80626C90.3891 7.48802 90.5382 8.32601 90.5382 9.32024V16.2656H87.1082V9.5972C87.1082 9.1427 87.0442 8.76631 86.9164 8.46804C86.7886 8.16977 86.5897 7.94962 86.3199 7.80759C86.0642 7.65135 85.7446 7.58034 85.3611 7.59454C85.0629 7.59454 84.7859 7.64425 84.5303 7.74368C84.2746 7.8289 84.0544 7.96383 83.8698 8.14847C83.6852 8.31891 83.536 8.51775 83.4224 8.74501C83.323 8.97226 83.2733 9.22082 83.2733 9.49068V16.2656H81.5902C81.1925 16.2656 80.8516 16.2656 80.5675 16.2656C80.2835 16.2656 80.0491 16.2656 79.8645 16.2656Z" fill="#1D2939"/>
<path d="M97.6704 16.5C96.6904 16.5 95.8169 16.2514 95.0499 15.7543C94.2971 15.243 93.7006 14.547 93.2603 13.6664C92.82 12.7716 92.5998 11.7561 92.5998 10.6198C92.5998 9.48358 92.82 8.47514 93.2603 7.59454C93.7006 6.69973 94.3042 5.99667 95.0712 5.48535C95.8382 4.97403 96.7188 4.71837 97.713 4.71837C98.2243 4.71837 98.7143 4.79649 99.1831 4.95273C99.6518 5.10897 100.078 5.32201 100.461 5.59188C100.845 5.86174 101.157 6.17421 101.399 6.52929C101.64 6.87017 101.782 7.22526 101.825 7.59454L101.015 7.78628V0.5H104.445V16.2656H101.271L101.079 13.6878L101.761 13.7943C101.718 14.1494 101.576 14.4902 101.335 14.8169C101.108 15.1436 100.809 15.4348 100.44 15.6904C100.071 15.9319 99.6447 16.1236 99.1617 16.2656C98.693 16.4219 98.1959 16.5 97.6704 16.5ZM98.5439 13.6664C99.0694 13.6664 99.5239 13.5386 99.9074 13.283C100.291 13.0273 100.582 12.6722 100.781 12.2177C100.994 11.7632 101.1 11.2306 101.1 10.6198C101.1 9.9949 100.994 9.45517 100.781 9.00067C100.582 8.54616 100.291 8.19108 99.9074 7.93542C99.5239 7.67976 99.0694 7.55193 98.5439 7.55193C98.0184 7.55193 97.5639 7.67976 97.1804 7.93542C96.8111 8.19108 96.5199 8.54616 96.3069 9.00067C96.0938 9.45517 95.9873 9.9949 95.9873 10.6198C95.9873 11.2306 96.0938 11.7632 96.3069 12.2177C96.5199 12.6722 96.8111 13.0273 97.1804 13.283C97.5639 13.5386 98.0184 13.6664 98.5439 13.6664Z" fill="#1D2939"/>
</svg>
